<svg xmlns="http://www.w3.org/2000/svg" viewBox="0 0 44 44"><defs><style>.cls-1{fill:#d01403;}.cls-2{fill:#fff;}</style></defs><title>baseball</title><g id="Layer_2" data-name="Layer 2"><g id="Layer_1-2" data-name="Layer 1"><circle class="cls-1" cx="22" cy="22" r="22"/><path class="cls-2" d="M10.15,10.09h0a2.46,2.46,0,0,0,.06,3.54L27.73,29.47h0l2.84,3.22h0a1.09,1.09,0,0,0,.13,1.36,1.07,1.07,0,0,0,1.52,0l1.89-1.89a1.08,1.08,0,0,0,0-1.51,1.06,1.06,0,0,0-1.36-.13l0,0-3.22-2.84L13.69,10.15A2.47,2.47,0,0,0,10.15,10.09Z"/></g></g></svg>