<svg xmlns="http://www.w3.org/2000/svg" viewBox="0 0 44 44"><defs><style>.cls-1{fill:#d01403;}.cls-2{fill:#fff;}</style></defs><title>kvaerk</title><g id="Layer_2" data-name="Layer 2"><g id="Layer_1-2" data-name="Layer 1"><circle class="cls-1" cx="22" cy="22" r="22"/><path class="cls-2" d="M26.29,15.16c.07.61.49,2.19-.45,3.14a22.51,22.51,0,0,1-2.71.69l-5.51-.9a8.77,8.77,0,0,1-1.33,1.59v.08l4.77,1.34s10.15,4.82,10.22,4.75a6.59,6.59,0,0,0,1-2.28c0-1.38-1.22-2.65-2.95-4.69a8.7,8.7,0,0,1-1-3.33,20.89,20.89,0,0,1,.39-3.26C28.36,11.52,26.69,12.65,26.29,15.16Z"/><path class="cls-2" d="M17.79,18S16.57,14.56,16.27,14c-.53-.93-1.07-.25-1.07-.25l1.09,5.89c.74.25,1.85.33,2.23-.25Z"/><path class="cls-2" d="M14.44,22.32l3.72,1.16,11.58,2L25.5,24.2l-4.91-2.57-5.74-.92A8.46,8.46,0,0,1,14.44,22.32Z"/><path class="cls-2" d="M14.32,20.49a8.63,8.63,0,0,0-1.22-3.24c-.3-.49-1.23-.28-1.21-.09s.32,1.82.67,3.07A3.84,3.84,0,0,0,14.32,20.49Z"/><path class="cls-2" d="M15.66,21.15c-.07-.06-1.15-.85-1.43-1.14h0a3.38,3.38,0,0,1-1.67.22l1.72,2,.16.12C14.85,22,15.47,21.7,15.66,21.15Z"/><path class="cls-2" d="M15.67,24.41a11,11,0,0,0-3.62-2.06c-.85-.21-1.18.87-1.18.87,2.07,1,4.63,2.65,4.63,2.65a1.48,1.48,0,0,0,.28-.64A7.35,7.35,0,0,0,15.67,24.41Z"/><path class="cls-2" d="M17.49,24.22c-.18,0-2.31.09-2.32.08,0,.3.3.54.26.86a4.38,4.38,0,0,0,.07.71l4.8.48s.21-.69.25-.73-.34-1.51-.34-1.51Z"/><path class="cls-2" d="M20.19,26.63c.08-.15-1.66-4.13-.05-6.16,1-.88,11.15,5.38,11.15,5.38l-2.85,3.29C28.39,29.18,22.07,26.56,20.19,26.63Z"/><path class="cls-2" d="M15.67,26.88c-1.74-.63-2.21.05-2.32.68a4,4,0,0,1,2.1,1.11,5.3,5.3,0,0,1,.44.4c.33-.07.68-.65.74-.73s-.12-.14.35-.67C16.94,27.67,15.7,26.9,15.67,26.88Z"/><path class="cls-2" d="M20.15,26.9a14.09,14.09,0,0,1-3.43.66,7.41,7.41,0,0,1-.83,1.51c1.47-.1,5.22,0,5.22,0S20.49,26.66,20.15,26.9Z"/><path class="cls-2" d="M20.17,26.94a3.36,3.36,0,0,0-.15.94,1.25,1.25,0,0,0,.34.87,1.79,1.79,0,0,0,.69.34,37.91,37.91,0,0,0,5.44.93,3.29,3.29,0,0,0,1.82-.34s1.7-2.21,1.83-2.5a36.62,36.62,0,0,0-3.76-.58l-6.29-.39Z"/></g></g></svg>