<svg id="Layer_1" data-name="Layer 1" xmlns="http://www.w3.org/2000/svg" viewBox="0 0 99.45 105.46"><defs><style>.cls-1{fill:#d01b17;}.cls-2{fill:#fff;}</style></defs><title>start</title><circle class="cls-1" cx="68.95" cy="42.5" r="25"/><circle class="cls-1" cx="18.95" cy="85.5" r="16.5"/><circle class="cls-1" cx="43.73" cy="61.73" r="43.73"/><circle class="cls-2" cx="27.76" cy="52.68" r="4.51"/><polygon class="cls-2" points="39.6 50.84 42.61 44.84 48 47.02 49.43 43.36 40.65 39.79 30.02 61.05 19.37 61.07 19.37 65.05 32.5 65.05 34.88 60.28 48.21 73.61 43.2 83.63 46.78 85.42 53.08 72.82 47.58 67.31 48.7 65.05 56.64 65.05 65.26 73.67 68.09 70.84 58.3 61.05 49.81 61.05 39.6 50.84"/><circle class="cls-1" cx="52.45" cy="5" r="5"/><circle class="cls-1" cx="96.45" cy="78" r="3"/></svg>