<svg xmlns="http://www.w3.org/2000/svg" viewBox="0 0 44 44"><defs><style>.cls-1{fill:#d01403;}.cls-2{fill:#fff;}</style></defs><title>videsikke</title><g id="Layer_2" data-name="Layer 2"><g id="Layer_1-2" data-name="Layer 1"><circle class="cls-1" cx="22" cy="22" r="22"/><path class="cls-2" d="M26.59,21.46c-.91.8-2,1.4-2.37,1.84a1.3,1.3,0,0,0-.28,1l0,1.22H20.37l0-1.69A3.37,3.37,0,0,1,22,20.6l1.58-1.14c.57-.42,1.15-.89,1.15-1.62,0-1.09-.94-1.69-2.5-1.69a5.34,5.34,0,0,0-3.67,1.56L17.36,14.8c.54-.6,2.21-2,5.56-2s5.57,2.11,5.57,4.6A4.89,4.89,0,0,1,26.59,21.46Zm-4.45,9.83a2.25,2.25,0,1,1,0-4.48,2.25,2.25,0,1,1,0,4.48Z"/></g></g></svg>