<svg xmlns="http://www.w3.org/2000/svg" viewBox="0 0 44 44"><defs><style>.cls-1{fill:#d01403;}.cls-2{fill:#fff;}</style></defs><title>vold</title><g id="Layer_2" data-name="Layer 2"><g id="Layer_1-2" data-name="Layer 1"><circle class="cls-1" cx="22" cy="22" r="22"/><circle class="cls-2" cx="16.78" cy="12.69" r="1.99"/><circle class="cls-2" cx="29.3" cy="16.82" r="1.99"/><path class="cls-2" d="M34.4,26.42l1.25-1.25L31,20.56l-6.43-2.18.69-4.46-1.74-.27-.65,4.16L12.63,14.33l.69-4.47-1.75-.27-.92,5.93,3.47,1.18v7.16L12.9,31.75l1.75.27,1.19-7.66h1.41l2.12,2.12-.82,5.3,1.75.27.95-6.18-2.71-2.71v-5l7.55,2.55L24.37,31.88H33.2V30.11H29.58l1.13-7.38Zm-8,3.69L27,26.72l1.33.2-.5,3.19Z"/></g></g></svg>